<?xml version="1.0" encoding="utf-8"?>
<!-- Generator: Adobe Illustrator 22.1.0, SVG Export Plug-In . SVG Version: 6.00 Build 0)  -->
<svg version="1.1" id="Layer_1" xmlns="http://www.w3.org/2000/svg" xmlns:xlink="http://www.w3.org/1999/xlink" x="0px" y="0px"
	 viewBox="0 0 1000 1000" style="enable-background:new 0 0 1000 1000;" xml:space="preserve">
<style type="text/css">
	.st0{clip-path:url(#SVGID_2_);fill:#57BCEB;}
	.st1{clip-path:url(#SVGID_2_);}
	.st2{fill:#FFFFFF;}
	.st3{fill:#F6C8DF;}
	.st4{fill:#1D1D1B;}
	.st5{fill:#EA5B56;}
	.st6{fill:#E42613;}
	.st7{fill:#C77BA0;}
	.st8{fill:#ED9FC5;}
	.st9{fill:#F3A7C9;}
	.st10{fill:#E84488;}
</style>
<g>
	<defs>
		<rect id="SVGID_1_" width="1000" height="1000"/>
	</defs>
	<clipPath id="SVGID_2_">
		<use xlink:href="#SVGID_1_"  style="overflow:visible;"/>
	</clipPath>
	<rect class="st0" width="1000" height="1000"/>
	<g class="st1">
		<path class="st2" d="M459,290.6c15.6-2.2,22.9-17.5,23.7-31.4c0.5-9.1-2.1-18.4-8.1-25.4c-6.9-8.1-14.6-10.2-24.8-9.4
			c-18.3,1.4-34.6,10.8-36.3,30.3C411.6,276.7,438.3,293.5,459,290.6 M423,240.9c8.3-9.6,27.9-6.8,30.4,6.4c2,10.7-9.8,23.2-21,21.3
			C417.9,266.2,413.9,251.4,423,240.9"/>
		<path class="st2" d="M557.5,353c19,7.5,38.8-0.6,46.2-19.3c4.1-10.5,3.1-21.8-1.7-31.9c-2.4-5-5.6-9.5-9.4-13.6
			c-6.7-7.3-21.3-12.1-30.9-10c-11.4,2.5-19.4,12.6-24.3,22.4C527.1,321.5,535.9,344.5,557.5,353 M543.9,300.9
			c8.3-9.6,27.9-6.8,30.4,6.4c2,10.7-9.8,23.2-21,21.3C538.8,326.2,534.8,311.4,543.9,300.9"/>
		<path class="st3" d="M294,285.4c19.2-27.3,47.9-95.2,11-120.5c-0.9-0.7-1.6-1.4-2.2-2.2c-46.9-3.9-87.1,5.4-116.6,44.4
			c-21.3,28.2-31.4,71.2-3.9,98.7C219.3,343.1,268.5,321.6,294,285.4 M272.4,227.6c18.4,2.2,21.5,31.8,3,36.5
			C246.8,271.5,247.1,224.6,272.4,227.6 M218.9,214.1c18.4,2.2,21.5,31.8,3,36.5C193.4,257.9,193.7,211.1,218.9,214.1"/>
		<path class="st3" d="M259.8,714.5C259.8,714.5,259.8,714.5,259.8,714.5c-0.1-0.1-0.1-0.1-0.1-0.1c-15-13.5-30.8-26.3-46.9-38
			c0.2-1.4,0.3-3,0.4-4.6c1.2-17.8-1.7-41.9-10.8-55.4c-3.3-4.8-9.3-6.2-15.1-3.5c-4.9,2.3-9.4,7.8-7.4,14.5l3.9,11l4.2,12.1
			c0.7,2.7,1.2,5.5,1.7,8.3c-14.7-9.2-28.4-17-43.5-21.2c-7.9-2.2-13.3,2.4-15.1,7.7c-1.8,5.3-0.3,12.6,7.3,16l6.2,2.7l23.1,10.6
			c-5.2,0.6-9.7,1.4-13.9,2.3c-0.9,0.2-1.8,0.5-2.6,0.9c-5.2,2.6-7.3,8.6-6.5,13.6c0.9,6,5.2,9.8,11.1,9.5
			c5.6-0.2,11.1-1.2,16.4-2.2l14.6-2l4.3,0.3c0.3,0,0.5,0.1,0.8,0.1c0.2,0.2,0.3,0.4,0.5,0.5c0.1,0,47.4,38.9,47.4,38.9
			c0,0,0.1,0.1,0.2,0.1c0.5,0.5,1.4,1.2,1.4,1.2l2.3,1.9l23.1,20.7c5.6,5.2,11.4,10.4,17.3,15.6c10.9-0.6,21.7-0.7,32.5-0.5
			C301.8,755.6,282.7,735.1,259.8,714.5"/>
		<path class="st5" d="M617.3,760.9c-32.5,6.5-66.3,7.6-99.4,3.9c-24.7-2.7-49-8.1-72.3-15.8c-3.1-1-6.2-2.1-9.2-3.2
			c-15.8-5.8-31.4-12.8-46.2-21.2c-12.2-6.9-23.8-14.6-34.7-23.2c-10.9,12.4-20.7,25.8-29.1,40.3c-58.5,101.9-74.8,224.6-91,339.2
			c197.1,10.9,395.5,2.2,592.6-1.6c-15.7-112.9-30.7-238.6-90.8-337.6c-5.3-8.7-11.1-17-17.1-25.1c-9.9,7.3-20.5,14.1-32.1,19.9
			C665.8,748,641.9,756,617.3,760.9"/>
		<path class="st6" d="M773.4,757.9c-6-11.8-12.4-23.5-19.4-34.8c-4.2-6.7-8.7-13.3-13.5-19.6c-0.6-0.7-1.2-1.4-1.7-2.1
			c-0.3,0.3-0.5,0.5-0.8,0.8c-5.6,5.1-11.6,9.9-17.8,14.5c6,8.1,11.8,16.4,17.1,25.1c60,99,75,224.7,90.8,337.6
			c-197.1,3.8-395.6,12.5-592.7,1.6c16.1-114.6,32.5-237.3,91-339.2c8.3-14.5,18.2-27.9,29.1-40.3c-0.9-0.7-1.8-1.4-2.7-2.1
			c-5.2-4.2-10.1-8.6-14.9-13.1c-10.1,11.6-19.6,23.9-28.2,36.9c-7.5,11.4-14.3,23.2-20.5,35.3c-5,9.6-9.6,19.4-13.9,29.4
			c-39.9,92.5-52.4,199.9-66.1,296.3c-1.5,10.8,9.3,17.4,17.2,15.6c59.6,4,119.3,4.5,179,4.6c10.1,0,20.1,0,30.2,0
			c26.4,0,52.9,0,79.3,0.4c53.2,0.6,106.3-0.7,159.4-2.1c10-0.3,20.1-0.5,30.1-0.7c42.5-1,84.9-1.8,127.4-1.2c1.9,0,3.6-0.4,5-1.1
			c8,2.3,19.4-4.4,17.9-15.4c-4-27.9-8-56.4-12.5-85.1c-1.3-8.1-2.6-16.2-4-24.3c-11-64.4-25.8-128.8-51.3-188.2
			C780.1,771.6,772.9,757.8,773.4,757.9"/>
		<path class="st3" d="M401.5,704.9c13.8,7.6,28,14,42.2,19.2c3.2,1.2,6.4,2.3,9.7,3.4c21.6,7.2,44.2,12.1,67.2,14.5
			c33.1,3.5,66.8,1.9,99-5.5c18.2-4.2,35.8-10.3,52.6-18.3c20-9.6,37.3-21.8,52.2-36.1c16.7-16.1,30.2-34.7,40.7-55.1
			c9.5-18.4,16.6-38.3,21.3-58.9c4-17.4,6.3-35.3,7.1-53.4c1.5-34.4-3.8-68.8-15.6-101.3c-6.1-16.9-14.3-32.8-24.1-47.8c0,0,0,0,0,0
			c-2.8-4.2-5.7-8.4-8.7-12.5c-0.2-0.2-0.4-0.5-0.5-0.7c-2.7-3.7-5.6-7.3-8.5-10.8c-0.4-0.5-0.8-1-1.2-1.5c-1.7-2.1-3.5-4.1-5.3-6.1
			c-1.2,0.7-2.4,1.5-3.6,2.2c-9.3,5.5-16.7-7.9-8.3-14c0.2-0.1,0.4-0.3,0.7-0.5c-11-11.3-22.9-21.9-35.3-31.6
			c-5.8,6.6-20.1,2.4-18.9-7.3c0.2-2,0.6-4,1-6c-5.5-3.9-11.1-7.7-16.9-11.3c-1.7-1.1-3.4-2.1-5.1-3.1c-4.7-2.9-9.4-5.8-14.2-8.6
			c-1.7-1-3.4-1.9-5.1-2.8c-1.6-0.9-3.3-1.8-4.9-2.7c-0.3,0.4-0.6,0.8-1,1.1c-5.8,6.7-17-1.4-13.4-8.8c-9-4.6-18.2-8.9-27.5-13
			c-3.9,6.3-15.5,7.9-19,0.1c-1.3-3-2.4-6.3-3.4-9.5c-3.1-1.2-6.2-2.6-9.4-3.8c-0.4-0.1-0.7-0.3-1.1-0.4c-6.9-2.6-13.9-5.1-20.9-7.5
			c-0.2-0.1-0.3-0.1-0.5-0.2c-7.2-2.5-14.5-4.8-21.8-7c-55.9-17.2-114.3-28-171.1-34c24.5,32.9,5,90.3-12.3,121.8
			c-22.4,40.9-60.6,64.6-102.2,57.8c32.7,30.7,68.1,58,108,78c0.8-1.1,1.7-2.1,2.8-3c8.3-7,18.8,1.6,14.6,11.1
			c3.9,1.7,7.7,3.3,11.7,4.8c9.4,3.6,5.8,16.1-4.1,14.7c-5.9-0.9-11.8-2.1-17.6-3.7c-9.8,17.4-18,35.5-23.6,54.2
			c-5.5,18.5-8.5,37.5-7.9,56.7c0.5,16.6,3.6,33.5,9.9,50.3c1.8,4.7,3.8,9.3,6,13.7c6.3,12.5,14.3,24,23.6,34.5
			c9.3,10.5,19.9,20.1,31.3,28.7C380,692.2,390.6,698.9,401.5,704.9 M643.5,445.8c24.4-15,61.7-21.3,86.9-4.4
			c12.2,8.2,19.2,20.9,22.3,35c5.2,24.6-1.8,53.7-15.3,71.3c-18.7,24.3-53.6,42.1-84.7,31.3c-19.6-6.8-32.2-24-38.9-42.6
			C601.3,501.7,611.1,465.7,643.5,445.8 M517.2,299.9c4.7-17,15.8-34,32.7-41.2c14.7-6.3,28.9-2.7,40.8,5.2
			c6.3,4.1,12,9.5,16.9,15.3c5.5,6.5,9.9,14.3,13,22.2c5.3,13.7,5,28.7-1,42.2c-12.7,28.4-45.3,38.2-73.5,25.4
			C519,356.6,509.7,327,517.2,299.9 M425.6,206.6c11.7-4.8,24-5.3,35.4-2.1c9.8,2.8,18.9,8.3,26.3,16.1
			c28.3,29.8,13.7,87.3-30.6,90.9c-32.9,2.7-65.2-24.5-64.9-56.8C392,233.5,406,214.8,425.6,206.6 M356.4,511.9
			c1.1-8.5,15.5-7.6,15.3,1c-0.6,43.6,28.9,77.4,72.1,87.2c43.9,10,80.8-2.1,108.9-36.1c7.5-9,22.5,1.3,17,11.4
			C518.8,669.3,342.4,619.7,356.4,511.9"/>
		<path class="st7" d="M275.4,264.2c18.4-4.7,15.4-34.3-3-36.5C247.1,224.6,246.8,271.5,275.4,264.2"/>
		<path class="st7" d="M218.9,214.1c-25.2-3-25.5,43.8,3,36.5C240.4,245.9,237.4,216.3,218.9,214.1"/>
		<path class="st8" d="M355.4,701.5c10.9,8.6,22.6,16.3,34.7,23.2c14.8,8.3,30.3,15.4,46.2,21.2c3.1,1.1,6.1,2.2,9.2,3.2
			c23.2,7.7,47.6,13.1,72.3,15.8c33.1,3.7,66.9,2.6,99.4-3.9c24.6-4.9,48.5-12.9,70.9-24.3c11.6-5.9,22.2-12.6,32.1-19.9
			c6.2-4.6,12.2-9.4,17.8-14.5c0.3-0.3,0.5-0.5,0.8-0.8c18.8-17.5,34-37.9,45.6-60.2c10.8-20.8,18.7-43.3,23.6-66.9
			c4.1-19.4,6.2-39.5,6.5-59.9c0.4-32.3-4.6-64.6-14.9-95.3c-11.8-35-30.2-67.4-53.7-95.8c15.9-11.1,30.9-23.8,43-38.5
			c17-20.6,31-45.9,27-73.3c-2.8-19-17-35.6-36.4-40.1c-23.1-5.4-46.2,4-63.7,18.8c-11.8,10-21.6,22.5-29.3,35.7
			c-5.5,9.4-11.1,20-15.4,30.8c-1.7-1.1-3.4-2.3-5.1-3.4c-0.2-0.1-0.4-0.3-0.6-0.4c-6.6-4.3-13.3-8.4-20-12.4
			c-0.5-0.3-1-0.6-1.5-0.9c-4.1-2.4-8.2-4.7-12.4-7c14.6-19,27.2-39.7,35.4-62.1c6.1-16.8,10.3-36.2,5.3-53.9
			c-10.1-36-52.2-42.4-80.9-22.8c-17.5,11.9-29.7,29.5-35.8,49.4c-3.7,12.1-5.4,25-5.3,37.7c0.1,4.9,0.3,10,0.7,15.1
			c-5.1-1.9-10.2-3.7-15.4-5.5c-2.8-1-5.6-1.9-8.4-2.9c-5-1.7-10-3.3-15.1-4.8c-65.8-20.3-134.8-32.1-202.8-39.6
			c-0.9-0.7-1.9-1.2-3.1-1.5c-55.9-16.8-120.2,16.8-147,65.5c-17.9,32.6-23.4,76.4-0.6,106c-0.1,1.8,0.4,3.7,1.8,5.5
			c36.7,47,91.9,100,152.6,122.3c-11,18.3-19.9,37.7-26,57.7c-6.1,20-9.4,40.6-8.9,61.2c0.4,17.9,3.5,35.7,10,53.2
			c2.1,5.6,4.4,11.1,7.2,16.5c6.8,13.6,15.3,26.3,24.9,37.9c5.5,6.6,11.3,12.7,17.5,18.6c4.8,4.6,9.7,8.9,14.9,13.1
			C353.6,700.1,354.5,700.8,355.4,701.5 M737.9,201.3c8.3-5.3,17.9-9.3,26.1-9.6c8.5-0.3,13.5,0.6,20.5,5.7c4.1,3,8.3,9.3,9.9,16.5
			c1.8,8.1,0.4,18.5-3.1,27.9c-10.3,27.7-33.2,49.7-57,68.1c-13.2-14.3-27.7-27.3-43.3-39.1C700.6,244.4,713.6,217,737.9,201.3
			 M579.7,141.8c6.2-15.1,17-27.7,32.5-34.4c0,0,0.1,0,0.4-0.2c-0.2,0.1-0.3,0.1-0.4,0.2c0.2,0,3.8-1.3,4.6-1.6
			c1.7-0.5,3.4-0.9,5.2-1.2c1-0.2,1.2-0.2,1.2-0.3c0.1,0,0.5,0,1.8,0c1.7-0.1,3.3-0.1,5,0c0.5,0,0.8,0.1,1,0.1c-1.5-0.3,0.9,0,0,0
			c0.8,0.1,1.6,0.3,2.3,0.5c1.5,0.4,3,0.8,4.5,1.3c-1.5-0.8,2.4,0.9,0.1,0c0,0,0,0,0,0c0.1,0,0.1,0.1,0.2,0.1
			c0.7,0.4,1.4,0.7,2.1,1.1c0.7,0.4,1.3,0.8,2,1.2c0.2,0.1,0.2,0.1,0.3,0.2c0,0,0,0,0,0c-1.9-1.6,1.3,0.9,0,0
			c5.5,4.6,7.2,7.7,8.8,14.5c1.7,7.1,1.6,16.9-0.2,25.5c-5.7,27.2-20.2,52-35.7,75.3c-12.9-6.5-26.1-12.6-39.5-18.2
			c-1.7-9.8-3.5-19.5-3.1-29.8C573.2,164.4,575.2,152.8,579.7,141.8 M182.3,305.9c-27.5-27.5-17.4-70.5,3.9-98.7
			c29.5-39,69.7-48.4,116.6-44.4c0.6,0.8,1.3,1.5,2.2,2.2c36.9,25.3,8.2,93.2-11,120.5C268.5,321.6,219.3,343.1,182.3,305.9
			 M338.8,656c-9.3-10.5-17.3-22-23.6-34.5c-2.2-4.5-4.3-9-6-13.7c-6.4-16.8-9.5-33.6-9.9-50.3c-0.6-19.2,2.4-38.2,7.9-56.7
			c5.6-18.6,13.8-36.8,23.6-54.2c5.8,1.5,11.7,2.8,17.6,3.7c9.9,1.5,13.5-11,4.1-14.7c-3.9-1.5-7.8-3.1-11.7-4.8
			c4.2-9.4-6.3-18.1-14.6-11c-1,0.8-1.9,1.9-2.8,3c-39.9-20-75.3-47.2-108-78c41.6,6.8,79.8-17,102.2-57.8
			c17.3-31.4,36.8-88.9,12.3-121.8c56.9,6.1,115.2,16.9,171.1,34c7.3,2.2,14.5,4.6,21.8,7c0.1,0,0.3,0.1,0.5,0.2
			c7,2.4,14,4.9,20.9,7.5c0.4,0.1,0.7,0.3,1.1,0.4c3.1,1.2,6.2,2.5,9.4,3.8c0.9,3.3,2,6.5,3.4,9.5c3.4,7.8,15.1,6.2,18.9-0.1
			c9.3,4.1,18.5,8.4,27.5,13c-3.6,7.3,7.7,15.5,13.4,8.8c0.3-0.4,0.6-0.7,1-1.1c1.6,0.9,3.3,1.8,4.9,2.7c1.7,0.9,3.4,1.8,5.1,2.8
			c4.8,2.8,9.5,5.7,14.2,8.6c1.7,1.1,3.4,2,5.1,3.1c5.7,3.7,11.3,7.4,16.9,11.3c-0.4,2-0.8,4-1,6.1c-1.1,9.6,13.1,13.9,18.9,7.3
			c12.4,9.8,24.3,20.3,35.3,31.6c-0.2,0.1-0.4,0.3-0.7,0.5c-8.4,6-0.9,19.5,8.3,14c1.2-0.7,2.4-1.5,3.6-2.2c1.8,2,3.6,4,5.3,6.1
			c0.4,0.5,0.8,1,1.2,1.5c2.9,3.6,5.7,7.2,8.5,10.8c0.2,0.2,0.4,0.5,0.5,0.7c3,4.1,5.9,8.2,8.7,12.4c0,0,0,0,0,0
			c9.8,15,18,30.9,24.1,47.8c11.8,32.4,17,66.8,15.6,101.2c-0.8,18.1-3.1,36.1-7.1,53.4c-4.7,20.6-11.8,40.5-21.3,58.9
			c-10.5,20.4-24,39-40.7,55.1c-14.8,14.3-32.2,26.5-52.2,36.1c-16.8,8-34.4,14.1-52.6,18.3c-32.2,7.4-65.9,9-99,5.5
			c-23-2.5-45.6-7.4-67.2-14.5c-3.2-1.1-6.5-2.2-9.7-3.4c-14.2-5.2-28.5-11.6-42.2-19.2c-10.9-6-21.5-12.8-31.4-20.3
			C358.6,676.1,348.1,666.5,338.8,656"/>
		<path class="st9" d="M613.7,536.4c6.7,18.6,19.3,35.9,38.9,42.6c31.1,10.7,65.9-7,84.7-31.3c13.5-17.6,20.5-46.7,15.3-71.3
			c-3-14.2-10.1-26.9-22.3-35c-25.2-16.9-62.5-10.6-86.9,4.4C611.1,465.7,601.3,501.7,613.7,536.4"/>
		<path class="st4" d="M574.3,307.4c-2.5-13.3-22.1-16-30.4-6.4c-9.1,10.5-5.1,25.3,9.4,27.7C564.5,330.6,576.3,318.1,574.3,307.4"
			/>
		<path class="st4" d="M453.4,247.3c-2.5-13.3-22.1-16-30.4-6.4c-9.1,10.5-5.1,25.3,9.4,27.7C443.6,270.5,455.4,258,453.4,247.3"/>
		<path class="st8" d="M546.1,369c28.2,12.9,60.8,3.1,73.5-25.4c6-13.4,6.3-28.5,1-42.2c-3.1-7.9-7.5-15.7-13-22.2
			c-4.9-5.8-10.6-11.1-16.9-15.3c-12-7.9-26.1-11.4-40.8-5.2c-16.9,7.2-28.1,24.2-32.7,41.2C509.7,327,519,356.6,546.1,369
			 M537.4,300.7c4.9-9.8,12.9-19.9,24.3-22.4c9.7-2.2,24.3,2.7,30.9,10c3.7,4.1,7,8.6,9.3,13.6c4.8,10,5.8,21.4,1.7,31.9
			c-7.4,18.8-27.2,26.8-46.2,19.3C535.9,344.5,527.1,321.5,537.4,300.7"/>
		<path class="st8" d="M456.7,311.5c44.3-3.6,59-61.1,30.6-90.9c-7.4-7.8-16.5-13.3-26.3-16.1c-11.4-3.2-23.7-2.8-35.4,2.1
			c-19.6,8.1-33.6,26.9-33.8,48C391.5,286.9,423.7,314.1,456.7,311.5 M413.5,254.6c1.7-19.4,18-28.9,36.3-30.3
			c10.2-0.8,17.8,1.3,24.8,9.4c6,7,8.6,16.3,8.1,25.4c-0.8,14-8.2,29.2-23.7,31.4C438.3,293.5,411.6,276.7,413.5,254.6"/>
		<path class="st10" d="M569.8,575.4c5.5-10.1-9.5-20.5-17-11.4c-28.1,34-65,46.1-108.9,36.1c-43.2-9.8-72.7-43.6-72.1-87.2
			c0.1-8.6-14.2-9.5-15.4-1C342.4,619.7,518.8,669.3,569.8,575.4"/>
		<path class="st3" d="M615.4,224.2c15.5-23.3,29.9-48.1,35.7-75.3c1.8-8.6,2-18.4,0.2-25.5c-1.6-6.8-3.4-9.9-8.8-14.5
			c-0.1-0.1-0.2-0.1-0.3-0.2c-0.6-0.4-1.3-0.8-2-1.2c-0.7-0.4-1.4-0.7-2.1-1.1c-0.1-0.1-0.2-0.1-0.3-0.1h0c0,0,0,0,0,0
			c-1.5-0.6-3-1-4.5-1.3c-0.8-0.2-1.6-0.3-2.3-0.4h0c0,0,0,0,0,0c-0.2,0-0.5,0-1-0.1c-1.7-0.1-3.3-0.1-5,0c-1.3,0.1-1.7,0-1.8,0
			c0,0-0.2,0.1-1.2,0.3c-1.8,0.3-3.5,0.7-5.2,1.2c-0.9,0.2-4.5,1.6-4.6,1.6c-15.5,6.7-26.3,19.3-32.5,34.4c-4.5,11-6.6,22.6-7,34.4
			c-0.3,10.2,1.4,20,3.1,29.8C589.3,211.6,602.4,217.7,615.4,224.2"/>
		<path class="st3" d="M734.2,310c23.8-18.4,46.7-40.3,57-68.1c3.5-9.4,4.9-19.8,3.1-27.9c-1.6-7.2-5.8-13.6-9.9-16.5
			c-7-5.1-12-6-20.5-5.7c-8.1,0.3-17.8,4.3-26.1,9.6c-24.3,15.7-37.3,43.2-47,69.6C706.5,282.6,721,295.7,734.2,310"/>
		<path class="st3" d="M749.4,958.7c2.2,2,4.2,4,6.1,6l7.8,10.2l7,9.3c4.5,5.3,11.6,4.6,16.2,1.8c5.4-3.3,7.6-9.2,5.3-14.5
			c-6.3-15.1-24.9-30.7-40.5-39.4c-1.4-0.8-2.8-1.5-4.1-2.2c-0.9-19.7-3-40.1-6.1-60.3c0,0,0,0,0,0c-4.8-31.5-11.8-59.6-20.7-83.4
			c-0.2-0.4-0.3-0.8-0.4-1.2v0c-2.2-5.7-8.2-7.9-12.7-6.9c-4.7,0.9-7.5,4.8-7.2,9.8c0.5,8.1,1.4,16.3,2.5,24.4
			c1.2,8.8,2.6,17.6,4.1,26.3l4.6,30.7l0.6,5c0,0,0,0,0,0c0,0,0,0.1,0,0.1l6.5,60.7c0,0.3,0.1,0.5,0.2,0.8c-0.1,0.2-0.2,0.5-0.4,0.7
			l-2.2,3.8l-9.7,11.1c-3.7,3.9-7.6,8-10.8,12.5c-3.4,4.8-2.6,10.5,1.9,14.5c3.8,3.4,10,4.9,15,2c0.8-0.4,1.5-1,2.2-1.6
			c3.5-3.3,6.7-6.9,9.6-10.3c-1.5,10.1-3.8,25.1-3.8,25.1l-1.1,6.7c-1.3,8.2,3.9,13.5,9.4,14.9c5.4,1.4,12.2-0.7,14.7-8.4
			C748.1,991.8,749.1,976,749.4,958.7"/>
	</g>
</g>
</svg>
