<?xml version="1.0" encoding="utf-8"?>
<!-- Generator: Adobe Illustrator 22.1.0, SVG Export Plug-In . SVG Version: 6.00 Build 0)  -->
<svg version="1.1" id="Layer_1" xmlns="http://www.w3.org/2000/svg" xmlns:xlink="http://www.w3.org/1999/xlink" x="0px" y="0px"
	 viewBox="0 0 48 48" style="enable-background:new 0 0 48 48;" xml:space="preserve">
<style type="text/css">
	.st0{fill:#00B7C6;}
	.st1{fill:#FFFFFF;}
</style>
<title>facebook icon</title>
<path class="st0" d="M24,0L24,0c13.3,0,24,10.7,24,24l0,0c0,13.3-10.7,24-24,24l0,0C10.7,48,0,37.3,0,24l0,0C0,10.7,10.7,0,24,0z"/>
<path class="st1" d="M32,14h-3.9c-1.2,0-2.1,0.5-2.1,1.8V18h6l-0.5,6H26v16h-6V24h-4v-6h4v-3.8c0-4,2.1-6.2,6.9-6.2H32V14z"/>
</svg>
