<?xml version="1.0" encoding="utf-8"?>
<!-- Generator: Adobe Illustrator 22.1.0, SVG Export Plug-In . SVG Version: 6.00 Build 0)  -->
<svg version="1.1" id="Layer_1" xmlns="http://www.w3.org/2000/svg" xmlns:xlink="http://www.w3.org/1999/xlink" x="0px" y="0px"
	 viewBox="0 0 48 48" style="enable-background:new 0 0 48 48;" xml:space="preserve">
<style type="text/css">
	.st0{fill:#00B7C6;}
	.st1{fill:#FFFFFF;}
</style>
<title>instagram logo</title>
<path class="st0" d="M24,0L24,0c13.3,0,24,10.7,24,24l0,0c0,13.3-10.7,24-24,24l0,0C10.7,48,0,37.3,0,24l0,0C0,10.7,10.7,0,24,0z"/>
<path class="st1" d="M24,15.8c-4.5,0-8.2,3.7-8.2,8.2s3.7,8.2,8.2,8.2s8.2-3.7,8.2-8.2S28.5,15.8,24,15.8L24,15.8z M24,29.3
	c-2.9,0-5.3-2.4-5.3-5.3s2.4-5.3,5.3-5.3s5.3,2.4,5.3,5.3l0,0C29.3,26.9,27,29.3,24,29.3C24,29.3,24,29.3,24,29.3z"/>
<path class="st1" d="M32.5,13.5c-1.1,0-1.9,0.9-1.9,1.9c0,1.1,0.9,1.9,1.9,1.9c1.1,0,1.9-0.9,1.9-1.9c0,0,0,0,0,0
	C34.5,14.4,33.6,13.5,32.5,13.5z"/>
<path class="st1" d="M39.9,17.4c-0.3-5.8-3.5-9-9.3-9.3C28.9,8,28.4,8,24,8s-4.9,0-6.6,0.1c-5.8,0.3-9,3.5-9.3,9.3
	C8,19.1,8,19.7,8,24s0,4.9,0.1,6.6c0.3,5.8,3.5,9,9.3,9.3C19.1,40,19.7,40,24,40s4.9,0,6.6-0.1c5.8-0.3,9-3.5,9.3-9.3
	C40,28.9,40,28.3,40,24S40,19.1,39.9,17.4z M37,30.5c-0.2,4.3-2.2,6.4-6.6,6.6c-1.7,0.1-2.2,0.1-6.5,0.1s-4.8,0-6.5-0.1
	c-4.4-0.2-6.4-2.3-6.6-6.6c-0.1-1.7-0.1-2.2-0.1-6.5s0-4.8,0.1-6.5c0.2-4.3,2.2-6.4,6.6-6.6c1.7-0.1,2.2-0.1,6.5-0.1s4.8,0,6.5,0.1
	c4.3,0.2,6.4,2.2,6.6,6.6c0.1,1.7,0.1,2.2,0.1,6.5S37.1,28.8,37,30.5z"/>
</svg>
