<svg xmlns="http://www.w3.org/2000/svg" viewBox="0 0 62.084 62.389"><defs><style>.a{fill:#1b365d;}</style></defs><path class="a" d="M344.69,37.618a2.033,2.033,0,1,1-2.033-2.033A2.039,2.039,0,0,1,344.69,37.618Zm7.947-5.117a2.033,2.033,0,1,0,2.033-2.033A2.039,2.039,0,0,0,352.637,32.5Zm24.84,1.389H361.77l-.068-.017-5.287,14.606a1.857,1.857,0,0,1-.729,1.186.235.235,0,0,1-.068.051,1.56,1.56,0,0,1-.407.22,1.831,1.831,0,0,1-1.372,0l-17-7.1a3.168,3.168,0,0,1-1.745-1.694L327.644,23.91a1.593,1.593,0,0,1,1.576-2.22l14.165,4.033a1.935,1.935,0,0,0,.559.085,1.755,1.755,0,0,0,.729-.152,1.908,1.908,0,0,0,.9-.813.627.627,0,0,0,.085-.186L352.01,12.2a1.383,1.383,0,0,1,.237-.441l.017-.034c.017-.017.017-.034.034-.034.034-.034.068-.085.1-.1a1.289,1.289,0,0,1,.441-.3,1.457,1.457,0,0,1,.661-.152,1.546,1.546,0,0,1,1.017.39c.017,0,.017.017.034.034l.1.1a1.189,1.189,0,0,1,.135.169.859.859,0,0,1,.153.271l3.965,9.167L372.8,15.472a1.565,1.565,0,0,0,.949-1.44,1.591,1.591,0,0,0-.271-.881h.017A31.19,31.19,0,1,0,365.9,56.629l1.034,3.728a1.024,1.024,0,0,0,.915.559h3.524a1.418,1.418,0,0,0,1.355-1s5.846-22.349,6.117-24.163a.469.469,0,0,0,.017-.152c0-.051.017-.1.017-.153a1.577,1.577,0,0,0-1.406-1.559Z" transform="translate(-316.8 0.1)"/></svg>