<svg xmlns="http://www.w3.org/2000/svg" id="Layer_1" viewBox="0 0 500 500"><style>.st1{fill:#1b365d}</style><circle cx="250.7" cy="250" r="250" fill="#ff8200"/><path d="M214.1 271.3c-6.6 0-12 5.4-12 12s5.4 12 12 12 12-5.4 12-12c-.1-6.6-5.5-12-12-12zM272.9 253.1c0 6.6 5.4 12 12 12s12-5.4 12-12-5.4-12-12-12c-6.7 0-12 5.4-12 12z" class="st1"/><path d="M419.5 261.3h-92.7l-.4-.1-31.2 86.2c-.5 2.9-2.1 5.4-4.3 7-.1.1-.2.2-.4.3-.7.5-1.5 1-2.4 1.3-2.5 1-5.4 1.1-8.1 0l-100.2-42c-4.6-1.8-8.3-5.4-10.3-10l-44-101.7c-2.8-6.5 2.3-13.6 9.3-13.1l83.6 23.8c1 .3 2.1.5 3.3.5 1.5 0 3-.3 4.3-.9 2.3-1 4.1-2.7 5.3-4.8.2-.3.4-.7.5-1.1l37.5-73.5c.3-1 .8-1.8 1.4-2.6l.1-.2c.1-.1.1-.2.2-.2.2-.2.4-.5.6-.6.8-.8 1.6-1.4 2.6-1.8 1.2-.6 2.5-.9 3.9-.9 2.3 0 4.4.9 6 2.3.1 0 .1.1.2.2l.6.6c.3.3.6.7.8 1 .4.5.7 1 .9 1.6l23.4 54.1 82-34.2c3.3-1.4 5.6-4.7 5.6-8.5 0-1.9-.6-3.7-1.6-5.2h.1c-33.3-47.2-88.3-78.1-150.5-78.1-101.7 0-184.1 82.4-184.1 184.1 0 101.7 82.4 184.1 184.1 184.1 39.3 0 75.8-12.3 105.7-33.4l6.1 22c1 2 3.1 3.3 5.4 3.3h20.8c3.7 0 6.9-2.4 8-5.9 0 0 34.5-131.9 36.1-142.6.1-.3.1-.6.1-.9 0-.3.1-.6.1-.9-.1-4.8-3.7-8.7-8.4-9.2z" class="st1"/></svg>