<?xml version="1.0" encoding="utf-8"?>
<!-- Generator: Adobe Illustrator 22.1.0, SVG Export Plug-In . SVG Version: 6.00 Build 0)  -->
<svg version="1.1" id="Layer_1" xmlns="http://www.w3.org/2000/svg" xmlns:xlink="http://www.w3.org/1999/xlink" x="0px" y="0px"
	 viewBox="0 0 340.9 62.4" style="enable-background:new 0 0 340.9 62.4;" xml:space="preserve">
<style type="text/css">
	.st0{fill:#1B365D;}
</style>
<g transform="translate(439.111)">
	<path class="st0" d="M-327.2,17.1h4.9c0.5,0,0.8,0.4,0.8,0.8v27.4c0,0.5-0.4,0.8-0.8,0.8h-4.9c-0.5,0-0.8-0.4-0.8-0.8V17.9
		C-328.1,17.5-327.7,17.1-327.2,17.1C-327.3,17.1-327.3,17.1-327.2,17.1z M-294.2,17.1h4.9c0.4,0,0.8,0.4,0.8,0.8v27.4
		c0,0.4-0.4,0.8-0.8,0.8h-5.3c-0.3,0-0.5-0.1-0.7-0.3L-308.8,28v17.4c0,0.4-0.4,0.8-0.8,0.8h-4.9c-0.4,0-0.8-0.4-0.8-0.8V17.9
		c0-0.5,0.4-0.8,0.8-0.8h4.8c0.3,0,0.5,0.1,0.6,0.3l14,18.4V17.9C-295,17.5-294.6,17.1-294.2,17.1
		C-294.2,17.1-294.2,17.1-294.2,17.1z M-228.4,17.9v4.2c0,0.4-0.3,0.8-0.8,0.8c0,0,0,0,0,0h-13.7v6h12.2c0.5,0,0.8,0.4,0.8,0.8v3.9
		c0,0.5-0.4,0.8-0.8,0.8h-12.2v6h14.1c0.4,0,0.8,0.4,0.8,0.8v4.2c0,0.4-0.4,0.8-0.8,0.8h-19.8c-0.4,0-0.8-0.4-0.8-0.8V17.9
		c0-0.5,0.4-0.8,0.8-0.8h19.3C-228.8,17.1-228.4,17.5-228.4,17.9C-228.4,17.9-228.4,17.9-228.4,17.9L-228.4,17.9z M-198.6,26.8
		c0,4.7-1.9,7.7-5.5,9l6.5,9.2c0.2,0.3,0.2,0.8-0.2,1.1c-0.1,0.1-0.3,0.1-0.4,0.1h-6.1c-0.2,0-0.5-0.1-0.6-0.3l-6-8.6
		c-0.2-0.2-0.4-0.3-0.7-0.3h-4.1v8.5c0,0.4-0.3,0.8-0.8,0.8c0,0,0,0,0,0h-4.9c-0.4,0-0.8-0.3-0.8-0.8l0,0V17.9
		c0-0.5,0.4-0.8,0.8-0.8h10.2c4.5,0,7.7,0.8,9.7,2.3C-199.6,20.9-198.6,23.4-198.6,26.8L-198.6,26.8z M-206.4,30.2
		c0.9-0.9,1.3-2.2,1.2-3.4c0.1-1.2-0.3-2.4-1.2-3.2c-1.3-0.7-2.9-1-4.4-0.9h-4.8v8.6h4.7C-208.7,31.3-207.2,30.9-206.4,30.2
		L-206.4,30.2z M-160.3,17.9V22c0,0.4-0.3,0.8-0.8,0.8c0,0,0,0,0,0h-12.7v6.3h12c0.4,0,0.8,0.3,0.8,0.8c0,0,0,0,0,0V34
		c0,0.4-0.3,0.8-0.8,0.8c0,0,0,0,0,0h-12v10.6c0,0.4-0.4,0.8-0.8,0.8h-4.9c-0.5,0-0.8-0.4-0.8-0.8V17.9c0-0.5,0.4-0.8,0.8-0.8h18.3
		C-160.6,17.1-160.3,17.5-160.3,17.9z M-130.4,42.1c-6.1,5.7-15.6,5.7-21.7,0c-5.9-5.9-5.9-15.5,0-21.4c6.1-5.7,15.6-5.7,21.7,0
		C-124.5,26.7-124.5,36.2-130.4,42.1z M-132.6,31.5c0.1-2.4-0.8-4.8-2.5-6.6c-3-3.4-8.2-3.7-11.6-0.6c-0.2,0.2-0.4,0.4-0.6,0.6
		c-1.7,1.8-2.5,4.2-2.5,6.6c-0.1,2.4,0.8,4.8,2.5,6.6c1.5,1.8,3.8,2.8,6.1,2.7c2.3,0,4.6-1,6.1-2.7
		C-133.4,36.3-132.5,33.9-132.6,31.5L-132.6,31.5z M-105.7,17.1h5.9c0.4,0,0.8,0.4,0.8,0.8c0,0.2,0,0.3-0.1,0.4l-8.2,12.7l9,13.8
		c0.2,0.4,0.1,0.8-0.2,1.1c-0.1,0.1-0.3,0.1-0.5,0.1h-6.1c-0.2,0-0.5-0.1-0.6-0.3l-6-9.2l-5.9,9.2c-0.1,0.2-0.4,0.4-0.7,0.4h-5.9
		c-0.4,0-0.8-0.3-0.8-0.8c0-0.2,0-0.3,0.1-0.4l9-13.6l-8.3-12.9c-0.2-0.4-0.1-0.9,0.2-1.1c0.1-0.1,0.3-0.1,0.4-0.1h5.9
		c0.3,0,0.5,0.1,0.7,0.4l5.3,8.2l5.3-8.2C-106.2,17.3-106,17.1-105.7,17.1L-105.7,17.1z M-333.7,32.8H-345c-0.4,0-0.8,0.3-0.8,0.8
		l0,0v2.7c0,0.4,0.3,0.8,0.8,0.8c0,0,0,0,0,0h4.7c-3.1,4.2-9,5.1-13.2,2.1c-4.2-3.1-5.1-9-2.1-13.2s9-5.1,13.2-2.1
		c0.7,0.5,1.4,1.2,2,1.9l4.4-1.9c0,0,0,0,0,0l0,0c0.3-0.1,0.4-0.4,0.5-0.7c0-0.2,0-0.3-0.1-0.4c-4.8-6.8-14.2-8.4-21-3.6
		c-6.8,4.8-8.4,14.2-3.6,21c4.8,6.7,14.1,8.4,20.9,3.6l0.5,1.8c0.1,0.2,0.2,0.3,0.4,0.3h1.9c0.3,0,0.6-0.2,0.7-0.5
		c0,0,2.6-10.8,2.7-11.7c0,0,0-0.1,0-0.1v-0.1C-333,33.1-333.3,32.8-333.7,32.8L-333.7,32.8z M-255.3,32.8h-11.3
		c-0.4,0-0.8,0.3-0.8,0.8l0,0v2.7c0,0.4,0.3,0.8,0.8,0.8l0,0h4.7c-3.1,4.2-9,5.1-13.2,2.1c-4.2-3.1-5.1-9-2.1-13.2s9-5.1,13.2-2.1
		c0.7,0.5,1.4,1.2,2,1.9l4.4-1.9c0,0,0,0,0,0l0,0c0.3-0.1,0.4-0.4,0.4-0.7c0-0.2,0-0.3-0.1-0.4c-4.8-6.8-14.2-8.4-21-3.6
		c-6.8,4.8-8.4,14.2-3.6,21c4.8,6.8,14.1,8.4,20.9,3.6l0.5,1.8c0.1,0.2,0.2,0.3,0.4,0.3h1.9c0.3,0,0.6-0.2,0.7-0.5
		c0,0,2.6-10.8,2.7-11.7c0,0,0-0.1,0-0.1v-0.1C-254.6,33.2-254.9,32.8-255.3,32.8L-255.3,32.8z"/>
	<path class="st0" d="M-411.2,37.7c0,1.1-0.9,2-2,2c-1.1,0-2-0.9-2-2c0-1.1,0.9-2,2-2l0,0C-412.1,35.7-411.2,36.6-411.2,37.7z
		 M-403.3,32.6c0,1.1,0.9,2,2,2c1.1,0,2-0.9,2-2c0-1.1-0.9-2-2-2l0,0C-402.4,30.6-403.3,31.5-403.3,32.6L-403.3,32.6z M-378.4,34
		h-15.7l-0.1,0l-5.3,14.6c-0.1,0.5-0.3,0.9-0.7,1.2c0,0,0,0-0.1,0.1c-0.1,0.1-0.3,0.2-0.4,0.2c-0.4,0.2-0.9,0.2-1.4,0l-17-7.1
		c-0.8-0.3-1.4-0.9-1.7-1.7l-7.4-17.2c-0.3-0.8,0-1.7,0.8-2.1c0.2-0.1,0.5-0.1,0.7-0.1l14.2,4c0.2,0.1,0.4,0.1,0.6,0.1
		c0.3,0,0.5,0,0.7-0.2c0.4-0.2,0.7-0.5,0.9-0.8c0-0.1,0.1-0.1,0.1-0.2l6.4-12.5c0.1-0.2,0.1-0.3,0.2-0.4l0,0c0,0,0,0,0,0
		c0,0,0.1-0.1,0.1-0.1c0.1-0.1,0.3-0.2,0.4-0.3c0.2-0.1,0.4-0.2,0.7-0.2c0.4,0,0.7,0.1,1,0.4c0,0,0,0,0,0l0.1,0.1
		c0.1,0.1,0.1,0.1,0.1,0.2c0.1,0.1,0.1,0.2,0.2,0.3l4,9.2l13.9-5.8c0.6-0.2,0.9-0.8,0.9-1.4c0-0.3-0.1-0.6-0.3-0.9h0
		c-9.9-14.1-29.4-17.5-43.5-7.6s-17.5,29.4-7.6,43.5c9.9,14.1,29.3,17.5,43.4,7.6l1,3.7c0.2,0.3,0.5,0.6,0.9,0.6h3.5
		c0.6,0,1.2-0.4,1.4-1c0,0,5.8-22.3,6.1-24.2c0,0,0-0.1,0-0.2c0-0.1,0-0.1,0-0.2C-377,34.7-377.6,34.1-378.4,34L-378.4,34z"/>
</g>
</svg>
