<svg xmlns="http://www.w3.org/2000/svg" viewBox="0 0 340.897 62.389"><defs><style>.a{fill:#fff;}.b{fill:#1b365d;}</style></defs><g transform="translate(439.111)"><path class="a" d="M35.776,447.141h4.873a.825.825,0,0,1,.821.821V475.37a.825.825,0,0,1-.821.821H35.776a.825.825,0,0,1-.821-.821V447.936A.8.8,0,0,1,35.776,447.141Zm33.075,0h4.873a.8.8,0,0,1,.794.794V475.37a.8.8,0,0,1-.794.794h-5.27a.884.884,0,0,1-.662-.318L54.207,458v17.4a.8.8,0,0,1-.794.794H48.54a.8.8,0,0,1-.794-.794V447.962a.825.825,0,0,1,.821-.821h4.846a.755.755,0,0,1,.636.318l14.009,18.378V447.962A.8.8,0,0,1,68.851,447.141Zm65.779.794v4.184a.78.78,0,0,1-.794.794H120.171V458.9h12.181a.825.825,0,0,1,.821.821v3.893a.825.825,0,0,1-.821.821H120.171v6.011h14.114a.8.8,0,0,1,.794.794V475.4a.8.8,0,0,1-.794.794H114.478a.8.8,0,0,1-.794-.794V447.962a.825.825,0,0,1,.821-.821h19.3A.8.8,0,0,1,134.63,447.936Zm29.765,8.845c0,4.661-1.854,7.653-5.535,9l6.488,9.189a.756.756,0,0,1-.609,1.192h-6.117a.777.777,0,0,1-.609-.318l-5.958-8.58a.84.84,0,0,0-.688-.344h-4.052v8.5a.768.768,0,0,1-.768.768h-4.925a.768.768,0,0,1-.768-.768V447.962a.825.825,0,0,1,.821-.821h10.169c4.5,0,7.732.768,9.666,2.277,1.933,1.536,2.886,3.972,2.886,7.362Zm-7.812,3.443a4.384,4.384,0,0,0,1.192-3.416,3.726,3.726,0,0,0-1.245-3.231,7.938,7.938,0,0,0-4.369-.874h-4.846v8.606h4.74C154.279,461.309,155.788,460.938,156.583,460.223Zm46.183-12.287v4.1a.78.78,0,0,1-.794.794H189.313v6.276h12a.78.78,0,0,1,.794.794v4.1a.78.78,0,0,1-.794.794h-12V475.4a.8.8,0,0,1-.794.794h-4.873a.825.825,0,0,1-.821-.821V447.962a.825.825,0,0,1,.821-.821h18.325A.8.8,0,0,1,202.766,447.936Zm29.9,24.23a15.817,15.817,0,0,1-21.662,0,15.216,15.216,0,0,1,0-21.4,15.817,15.817,0,0,1,21.662,0,15.216,15.216,0,0,1,0,21.4Zm-2.2-10.672a9.445,9.445,0,0,0-2.489-6.62,8.223,8.223,0,0,0-12.234,0,9.445,9.445,0,0,0-2.489,6.62,9.335,9.335,0,0,0,2.489,6.594,8.046,8.046,0,0,0,6.117,2.728,7.918,7.918,0,0,0,6.117-2.728A9.546,9.546,0,0,0,230.465,461.494Zm26.9-14.353h5.879a.8.8,0,0,1,.662,1.245l-8.236,12.737,9,13.823a.765.765,0,0,1-.662,1.192h-6.064a.727.727,0,0,1-.583-.318l-5.985-9.215-5.905,9.189a.8.8,0,0,1-.688.371h-5.905a.784.784,0,0,1-.662-1.218l8.951-13.638-8.315-12.949a.792.792,0,0,1,.662-1.218h5.852a.768.768,0,0,1,.688.371l5.27,8.209,5.27-8.209a1.019,1.019,0,0,1,.768-.371ZM29.288,462.792H17.981a.768.768,0,0,0-.768.768v2.675a.768.768,0,0,0,.768.768h4.687a9.419,9.419,0,1,1-.106-11.228l4.449-1.854a.026.026,0,0,0,.026-.026.759.759,0,0,0,.45-.689.8.8,0,0,0-.132-.424,15.033,15.033,0,1,0-3.628,21l.5,1.8a.472.472,0,0,0,.424.265h1.907a.708.708,0,0,0,.662-.477s2.6-10.778,2.728-11.652a.159.159,0,0,1,.026-.106v-.053a.755.755,0,0,0-.689-.768Zm78.464,0H96.444a.768.768,0,0,0-.768.768v2.675a.768.768,0,0,0,.768.768h4.687a9.419,9.419,0,1,1-.106-11.228l4.449-1.854a.026.026,0,0,0,.026-.026.759.759,0,0,0,.45-.689.8.8,0,0,0-.132-.424,15.06,15.06,0,1,0-3.654,21.026l.5,1.8a.472.472,0,0,0,.424.265H105a.708.708,0,0,0,.662-.477s2.6-10.778,2.728-11.652a.159.159,0,0,1,.026-.106v-.053a.742.742,0,0,0-.662-.794Z" transform="translate(-363.025 -430.02)"/><path class="b" d="M344.69,37.618a2.033,2.033,0,1,1-2.033-2.033A2.039,2.039,0,0,1,344.69,37.618Zm7.947-5.117a2.033,2.033,0,1,0,2.033-2.033A2.039,2.039,0,0,0,352.637,32.5Zm24.84,1.389H361.77l-.068-.017-5.287,14.606a1.857,1.857,0,0,1-.729,1.186.235.235,0,0,1-.068.051,1.56,1.56,0,0,1-.407.22,1.831,1.831,0,0,1-1.372,0l-17-7.1a3.168,3.168,0,0,1-1.745-1.694L327.644,23.91a1.593,1.593,0,0,1,1.576-2.22l14.165,4.033a1.935,1.935,0,0,0,.559.085,1.755,1.755,0,0,0,.729-.152,1.908,1.908,0,0,0,.9-.813.627.627,0,0,0,.085-.186L352.01,12.2a1.383,1.383,0,0,1,.237-.441l.017-.034c.017-.017.017-.034.034-.034.034-.034.068-.085.1-.1a1.289,1.289,0,0,1,.441-.3,1.457,1.457,0,0,1,.661-.152,1.546,1.546,0,0,1,1.017.39c.017,0,.017.017.034.034l.1.1a1.189,1.189,0,0,1,.135.169.859.859,0,0,1,.153.271l3.965,9.167L372.8,15.472a1.565,1.565,0,0,0,.949-1.44,1.591,1.591,0,0,0-.271-.881h.017A31.19,31.19,0,1,0,365.9,56.629l1.034,3.728a1.024,1.024,0,0,0,.915.559h3.524a1.418,1.418,0,0,0,1.355-1s5.846-22.349,6.117-24.163a.469.469,0,0,0,.017-.152c0-.051.017-.1.017-.153a1.577,1.577,0,0,0-1.406-1.559Z" transform="translate(-755.911 0.1)"/></g></svg>