<?xml version="1.0" encoding="utf-8"?>
<!-- Generator: Adobe Illustrator 22.1.0, SVG Export Plug-In . SVG Version: 6.00 Build 0)  -->
<svg version="1.1" id="Layer_1" xmlns="http://www.w3.org/2000/svg" xmlns:xlink="http://www.w3.org/1999/xlink" x="0px" y="0px"
	 viewBox="0 0 99.2 58" style="enable-background:new 0 0 99.2 58;" xml:space="preserve">
<style type="text/css">
	.st0{fill:#00B7C6;}
</style>
<g>
	<path class="st0" d="M76,41.4c-0.3,0-0.6,0.3-0.6,0.6v2.5c-0.1,1.6-0.6,2.5-1,2.9c-0.4,0.5-0.9,0.6-1.2,0.7c-0.9,0.1-2-0.1-2.4-2.2
		c-0.3-2,0.4-3.5,0.4-3.5c0.1-0.3,0-0.7-0.3-0.8c-0.3-0.1-0.7,0-0.8,0.3c0,0.1-0.9,1.8-0.5,4.2c0.1,0.6,0.2,1,0.4,1.4
		c-0.1,0.2-0.4,0.5-0.6,0.6c-0.2,0.1-0.4,0.1-0.5,0c-0.7-0.3-0.6-1.1-0.6-1.2V36.4c0-0.3-0.3-0.6-0.6-0.6c-0.3,0-0.6,0.3-0.6,0.6
		l0,10.6c0,0.6,0.2,1.9,1.4,2.3c0.2,0.1,0.4,0.1,0.7,0.1c0.3,0,0.5-0.1,0.8-0.2c0.3-0.1,0.6-0.4,0.9-0.7c0.7,0.7,1.7,0.8,2.5,0.8
		c0.6,0,1.4-0.2,2.1-1.1c0,0,0.1-0.1,0.1-0.1V50c0,0.1-0.1,2.1-1.6,2.3c-1.3,0.2-1.6-0.8-1.6-1c-0.1-0.3-0.4-0.5-0.7-0.5
		c-0.3,0.1-0.5,0.4-0.5,0.7c0.1,0.6,0.7,2.1,2.5,2.1c0.2,0,0.3,0,0.5,0c2-0.3,2.5-2.4,2.6-3.5v-5.4c0.1-0.8,0.1-1.7,0-2.6
		C76.6,41.7,76.3,41.4,76,41.4z"/>
	<path class="st0" d="M64.9,41.2h-3.4v-3.9c0-0.3-0.3-0.6-0.6-0.6c-0.3,0-0.6,0.3-0.6,0.6v11.5c0,0.3,0.3,0.6,0.6,0.6
		c0.3,0,0.6-0.3,0.6-0.6v-6.4h3.4c0.3,0,0.6-0.3,0.6-0.6C65.5,41.5,65.3,41.2,64.9,41.2z"/>
	<path class="st0" d="M80.4,23.3c-1.1,0-2.3,0.1-3.4,0.4C74.4,11.7,63.9,3.1,51.6,3.1c-10.6,0-20.1,6.5-24,16.3
		c-2-0.7-4-1.1-6.2-1.1c-10.1,0-18.3,8.2-18.3,18.3c0,4.1,1.4,8.1,3.9,11.3c0.1,0.1,0.9,1,1.8,0.7c1-0.3,1-1.5,1-1.9v-7.2
		c0.3-0.6,1.1-2.2,2.6-3c0.6-0.3,1.1-0.3,1.7,0c0.5,0.2,0.9,0.6,1.3,1.2c-1.8,2.5-2.5,6-1.7,9.2c0.3,1.1,1,1.9,1.8,1.9
		c0.9,0.1,1.7-0.5,2.1-1.5c0.8-2.1,0.7-4.4,0.4-6.1c-0.2-1.3-0.6-2.5-1.1-3.4c0.1-0.1,0.1-0.1,0.2-0.2c0.9-1,2.1-1.5,3.1-1.4
		c0.7,0.1,1.3,0.6,1.7,1.5c0.8,1.8,0.4,3.4-0.1,5.2c-0.2,0.9-0.5,1.8-0.6,2.7c-0.2,1.6,0.5,3.5,2.1,3.8c0.2,0,0.3,0,0.4,0
		c0.4,0,0.9-0.1,1.2-0.4c0.2-0.1,0.4-0.3,0.5-0.5c0.2,0.3,0.5,0.6,0.9,0.8c0.2,0.1,0.4,0.1,0.7,0.1c0.3,0,0.5-0.1,0.8-0.2
		c0.3-0.1,0.5-0.3,0.7-0.5c0.2,0.2,0.5,0.4,0.8,0.6c0.2,0.1,0.4,0.1,0.7,0.1c0.3,0,0.5-0.1,0.8-0.2c0.3-0.1,0.5-0.3,0.7-0.5
		c0.2,0.2,0.5,0.4,0.8,0.6c0.2,0.1,0.4,0.1,0.7,0.1c0.3,0,0.5-0.1,0.8-0.2c0.3-0.2,0.7-0.4,0.9-0.7c0.7,0.7,1.7,0.8,2.5,0.8
		c0.6,0,1.4-0.2,2.1-1.1c0,0,0.1-0.1,0.1-0.1V50c0,0.1-0.1,2.1-1.6,2.3c-1.3,0.2-1.6-0.8-1.6-1c-0.1-0.3-0.4-0.5-0.7-0.5
		c-0.3,0.1-0.5,0.4-0.5,0.7c0.1,0.6,0.7,2.1,2.5,2.1c0.2,0,0.3,0,0.5,0c2-0.3,2.5-2.4,2.6-3.5v-5.4c0.1-0.8,0.1-1.7,0-2.6
		c0-0.3-0.3-0.6-0.6-0.6c-0.3,0-0.6,0.3-0.6,0.6v2.5c-0.1,1.6-0.6,2.5-1,2.9c-0.4,0.5-0.9,0.6-1.2,0.7c-0.9,0.1-2-0.1-2.4-2.2
		c-0.3-2,0.4-3.5,0.4-3.5c0.1-0.3,0-0.7-0.3-0.8c-0.3-0.1-0.7,0-0.8,0.3c0,0.1-0.9,1.8-0.5,4.2c0.1,0.6,0.2,1,0.4,1.4
		c-0.1,0.2-0.4,0.5-0.7,0.7c-0.2,0.1-0.4,0.1-0.5,0c-0.7-0.3-0.6-1.1-0.6-1.2V36.4c0-0.3-0.3-0.6-0.6-0.6c-0.3,0-0.6,0.3-0.6,0.6
		l0,10.6c0,0.1,0,0.3,0,0.5c-0.1,0.2-0.4,0.6-0.7,0.7c-0.2,0.1-0.4,0.1-0.5,0c-0.7-0.3-0.6-1.1-0.6-1.2V36.4c0-0.3-0.3-0.6-0.6-0.6
		c-0.3,0-0.6,0.3-0.6,0.6l0,10.6c0,0.1,0,0.3,0,0.5c-0.1,0.2-0.4,0.6-0.7,0.7c-0.2,0.1-0.4,0.1-0.5,0c-0.7-0.3-0.6-1.1-0.6-1.2v-4.9
		c0-0.3-0.3-0.6-0.6-0.6c-0.3,0-0.6,0.3-0.6,0.6l0,4.6c0,0,0,0,0,0.1c-0.1,0.5-0.4,1.1-0.7,1.3c-0.2,0.2-0.5,0.2-0.8,0.2
		c-1-0.2-1.3-1.6-1.2-2.5c0.1-0.9,0.3-1.7,0.6-2.5c0.5-1.9,1.1-3.9,0.1-6c-0.7-1.5-1.8-2-2.6-2.1c-1.3-0.2-2.9,0.4-4.1,1.7
		c-0.5-0.6-1-1-1.6-1.3c-0.9-0.5-1.9-0.4-2.8,0c-0.9,0.5-1.5,1.1-2,1.8v-1.5c0-0.3-0.3-0.6-0.6-0.6c-0.3,0-0.6,0.3-0.6,0.6v11
		c0,0.7-0.1,0.8-0.2,0.8c-0.1,0-0.3-0.2-0.5-0.3c-2.4-3-3.7-6.7-3.7-10.6c0-9.4,7.7-17.1,17.1-17.1c2,0,3.9,0.3,5.7,1
		c-0.3,0.9-0.4,2.2,0.3,3c0.6,0.6,1.3,0.8,2,0.6c0.7-0.3,1.1-0.9,1.1-1.7c0-0.9-0.6-1.7-1.9-2.4c3.7-9.3,12.9-15.6,23-15.6
		c11.7,0,21.8,8.2,24.2,19.6c-0.9,0.4-1.8,1.1-2.1,2c-0.2,0.7-0.1,1.5,0.5,2c0.5,0.5,1.2,0.6,1.9,0.3c1.5-0.6,1.3-2.4,1.1-3.5
		c1-0.2,2.1-0.3,3.2-0.3C88.4,24.5,95,31,95,39.1c0,2.4-0.6,4.7-1.7,6.8c-0.2,0.5-0.9,1.7-1.4,2.2c-0.3,0.2-0.5,0.2-0.6,0.2
		c-0.4-0.4-0.2-1.4,0-2.3c0.1-0.4,0.2-0.8,0.2-1.2c0.1-1.1-0.2-2.1-0.8-2.6c-0.4-0.4-1.2-0.8-2.5-0.4c-0.8,0.2-1.4,0.7-1.9,1.2v-0.8
		c0-0.3-0.3-0.6-0.6-0.6c-0.3,0-0.6,0.3-0.6,0.6v5.3c0,0-0.1,0-0.1,0.1c-0.3,0.4-0.5,0.6-0.6,0.7c-0.3,0.2-0.5,0.2-0.6,0.2
		c-0.4-0.4-0.2-1.4,0-2.3c0.1-0.4,0.2-0.8,0.2-1.2c0.1-1.1-0.2-2.1-0.8-2.6c-0.4-0.4-1.2-0.8-2.5-0.4c-0.9,0.2-1.5,0.7-2,1.3v-0.9
		c0-0.3-0.3-0.6-0.6-0.6c-0.3,0-0.6,0.3-0.6,0.6v6.7c0,0.3,0.3,0.6,0.6,0.6c0.3,0,0.6-0.3,0.6-0.6v-3.6c0,0,0.1-0.1,0.1-0.1
		c0,0,0.7-1.9,2.2-2.3c0.4-0.1,1-0.2,1.4,0.2c0.4,0.3,0.5,0.9,0.4,1.6c0,0.4-0.1,0.8-0.2,1.1c-0.3,1.3-0.5,2.6,0.4,3.5l0.1,0
		c0.2,0.1,0.5,0.3,0.9,0.3c0.3,0,0.7-0.1,1.1-0.4c0,0.3,0.3,0.5,0.6,0.5c0.3,0,0.6-0.3,0.6-0.6v-3.9c0,0,0.7-1.9,2.2-2.3
		c0.4-0.1,1-0.2,1.4,0.2c0.4,0.3,0.5,0.9,0.4,1.6c0,0.4-0.1,0.8-0.2,1.1c-0.3,1.3-0.5,2.6,0.4,3.5l0.1,0c0.2,0.1,0.5,0.3,0.9,0.3
		c0.4,0,0.8-0.1,1.2-0.5c0.8-0.7,1.6-2.4,1.7-2.6c1.2-2.2,1.8-4.8,1.8-7.3C96.2,30.4,89.1,23.3,80.4,23.3z M16.1,38.9
		c0.3,0.7,0.6,1.6,0.8,2.5c0.2,1.5,0.4,3.6-0.3,5.4c-0.2,0.5-0.5,0.8-0.9,0.8c-0.3,0-0.6-0.4-0.8-1C14.3,43.9,14.7,41,16.1,38.9z
		 M29.3,22.4c0,0.3-0.1,0.5-0.3,0.6c-0.2,0.1-0.4,0-0.6-0.2c-0.3-0.3-0.3-0.9-0.1-1.6C28.9,21.5,29.3,22,29.3,22.4z M75.6,27.2
		c-0.3,0.1-0.5,0-0.6-0.1c-0.2-0.1-0.3-0.4-0.2-0.8c0.1-0.4,0.7-0.9,1.2-1.1C76.2,26.2,76.2,27,75.6,27.2z"/>
	<path class="st0" d="M24.6,39.1c0,0.5,0.4,1,1,1c0.5,0,1-0.4,1-1c0-0.5-0.4-1-1-1C25.1,38.1,24.6,38.5,24.6,39.1z"/>
	<path class="st0" d="M55.4,41.1c0-0.3-0.3-0.6-0.6-0.6c-0.3,0-0.6,0.3-0.6,0.6c0,0,0,0.6-1.1,0.8c-2.1,0.4-2.5,1.8-2.4,2.6
		c0,0.3,0.3,0.5,0.6,0.5c0,0,0,0,0.1,0c0.3,0,0.6-0.3,0.5-0.7c0-0.1,0-0.7,0.8-1.1c0.4,0.1,1.6,0.5,1.4,2.4
		c-0.3,2.4-3.3,2.9-4.5,2.9c-1.3,0.1-3.7-0.3-4.8-1.6c-0.6-0.7-0.9-1.7-0.7-2.9c0.1-0.7,0.4-1.3,0.8-1.8c0.9,0.8,2.1,1.1,3.3,1.1
		c1.7-0.1,2.8-0.9,2.7-2c0-1-1-1.6-2.5-1.7c-1.1-0.1-2.3,0.2-3.3,0.9C45,40.3,45,40.1,45,39.8c-0.1-1.2,0.3-2,1.2-2.6
		c1.3-0.8,3.2-0.8,4.3-0.3c1.5,0.8,1.2,1.9,1.2,2.1c-0.1,0.3,0.1,0.6,0.4,0.7c0.3,0.1,0.7-0.1,0.8-0.4c0.2-0.8,0.2-2.5-1.8-3.5
		c-1.4-0.7-3.8-0.8-5.5,0.3c-0.9,0.6-1.9,1.7-1.7,3.7c0,0.6,0.2,1,0.4,1.5c-0.6,0.7-1,1.5-1.2,2.6c-0.3,1.6,0,2.9,0.9,3.9
		c1.4,1.6,4,2,5.5,2c0.1,0,0.2,0,0.3,0c1.6-0.1,5.3-0.6,5.7-4c0.2-1.5-0.4-2.4-1-3C55.2,42.3,55.4,41.5,55.4,41.1z M48.4,40.8
		c0.9,0.1,1.3,0.4,1.4,0.6c0,0.3-0.6,0.7-1.6,0.7c-0.2,0-1.5,0.1-2.3-0.7C46.6,41,47.7,40.8,48.4,40.8z"/>
	<path class="st0" d="M65.6,34.9l-4.7,0c-1.4,0-4.2,0.6-4.4,3.2c-0.1,2.3,1.7,3,2.3,3.2c0.1,0,0.1,0,0.2,0c0.3,0,0.5-0.2,0.6-0.4
		c0.1-0.3-0.1-0.7-0.4-0.7c-0.6-0.2-1.5-0.7-1.4-2c0.1-2.2,3-2.1,3.2-2.1h4.7c0.3,0,0.6-0.3,0.6-0.6C66.2,35.1,65.9,34.9,65.6,34.9z
		"/>
	<polygon class="st0" points="82.2,16.8 82.6,16.8 82.6,13.7 83.8,13.7 83.8,13.3 81,13.3 81,13.7 82.2,13.7 	"/>
	<polygon class="st0" points="84.9,14 86.2,15.8 86.2,15.8 87.5,14 87.5,16.8 87.8,16.8 87.8,13.3 87.4,13.3 86.2,15.2 84.9,13.3 
		84.5,13.3 84.5,16.8 84.9,16.8 	"/>
</g>
</svg>
