<?xml version="1.0" encoding="utf-8"?>
<!-- Generator: Adobe Illustrator 22.1.0, SVG Export Plug-In . SVG Version: 6.00 Build 0)  -->
<svg version="1.1" id="Layer_1" xmlns="http://www.w3.org/2000/svg" xmlns:xlink="http://www.w3.org/1999/xlink" x="0px" y="0px"
	 viewBox="0 0 48 48" style="enable-background:new 0 0 48 48;" xml:space="preserve">
<style type="text/css">
	.st0{fill:#00B7C6;}
	.st1{fill:#FFFFFF;}
</style>
<title>twitter icon</title>
<path class="st0" d="M24,0L24,0c13.3,0,24,10.7,24,24l0,0c0,13.3-10.7,24-24,24l0,0C10.7,48,0,37.3,0,24l0,0C0,10.7,10.7,0,24,0z"/>
<path class="st1" d="M37.7,18.5C38.1,27.7,31.2,38,19.1,38C15.5,38,12,37,9,35c3.5,0.4,7-0.6,9.7-2.7c-2.8-0.1-5.3-1.9-6.1-4.6
	c1,0.2,2,0.1,3-0.1c-3.1-0.6-5.3-3.4-5.3-6.5c0.9,0.5,1.9,0.8,3,0.8c-2.9-1.9-3.7-5.8-2-8.8c3.3,4.1,8.3,6.6,13.5,6.9
	c-0.8-3.5,1.4-7.1,4.9-7.9c2.3-0.5,4.7,0.2,6.3,1.9c1.5-0.3,2.9-0.8,4.2-1.6c-0.5,1.5-1.5,2.8-2.9,3.6c1.3-0.1,2.6-0.5,3.8-1
	C40.2,16.4,39,17.6,37.7,18.5z"/>
</svg>
